<?xml version="1.0" encoding="utf-8"?>
<!-- Generator: Adobe Illustrator 19.2.1, SVG Export Plug-In . SVG Version: 6.00 Build 0)  -->
<svg version="1.1" id="arguments" xmlns="http://www.w3.org/2000/svg" xmlns:xlink="http://www.w3.org/1999/xlink" x="0px" y="0px"
	 viewBox="0 0 52 51" style="enable-background:new 0 0 52 51;" xml:space="preserve">
<style type="text/css">
	.st0{fill:#C5C5C5;}
	.st1{fill:#008948;}
</style>
<g>
	<path class="st0" d="M-2,54.7V4c0-3.3,2.7-6,6-6h44c3.3,0,6,2.7,6,6v34c0,3.3-2.7,6-6,6H14.5L-2,54.7z M4,2C2.9,2,2,2.9,2,4v43.3
		L13.3,40H48c1.1,0,2-0.9,2-2V4c0-1.1-0.9-2-2-2H4z"/>
</g>
<g>
	<rect x="15" y="19" class="st1" width="5" height="5"/>
</g>
<g id="Rectangle_5_copy">
	<rect x="24" y="19" class="st1" width="5" height="5"/>
</g>
<g id="Rectangle_5_copy_2">
	<rect x="33" y="19" class="st1" width="5" height="5"/>
</g>
</svg>
