<?xml version="1.0" encoding="utf-8"?>
<!-- Generator: Adobe Illustrator 19.2.1, SVG Export Plug-In . SVG Version: 6.00 Build 0)  -->
<svg version="1.1" id="konkurents" xmlns="http://www.w3.org/2000/svg" xmlns:xlink="http://www.w3.org/1999/xlink" x="0px" y="0px"
	 viewBox="0 0 47 47" style="enable-background:new 0 0 47 47;" xml:space="preserve">
<style type="text/css">
	.st0{fill:#C5C5C5;}
	.st1{fill:#008948;}
</style>
<g>
	<path class="st0" d="M43,49H4c-4.1,0-5.7-3.8-6-5.7l0-0.3V4c0-3.3,2.7-6,6-6h39c3.3,0,6,2.7,6,6v39C49,46.3,46.3,49,43,49z M2,42.8
		C2.1,43.4,2.5,45,4,45h39c1.1,0,2-0.9,2-2V4c0-1.1-0.9-2-2-2H4C2.9,2,2,2.9,2,4V42.8z"/>
</g>
<g>
	<rect x="11" y="27" class="st1" width="4" height="11"/>
</g>
<g id="Rectangle_6_copy">
	<rect x="18" y="17" class="st1" width="4" height="21"/>
</g>
<g id="Rectangle_6_copy_2">
	<rect x="25" y="24" class="st1" width="4" height="14"/>
</g>
<g id="Rectangle_6_copy_3">
	<rect x="32" y="11" class="st1" width="4" height="27"/>
</g>
</svg>
