<?xml version="1.0" encoding="utf-8"?>
<!-- Generator: Adobe Illustrator 19.2.1, SVG Export Plug-In . SVG Version: 6.00 Build 0)  -->
<svg version="1.1" id="home" xmlns="http://www.w3.org/2000/svg" xmlns:xlink="http://www.w3.org/1999/xlink" x="0px" y="0px"
	 viewBox="0 0 49 46" style="enable-background:new 0 0 49 46;" xml:space="preserve">
<style type="text/css">
	.st0{fill:#C5C5C5;}
	.st1{fill:#008948;}
</style>
<g id="Shape_10_copy">
	<path class="st0" d="M41,48H7c-3.3,0-6-2.7-6-6c0-0.6,0-5.5,4.2-9.8C9.2,28.1,15.5,26,24,26c8.5,0,14.8,2.1,18.8,6.2
		c4.3,4.5,4.2,9.6,4.2,9.8C47,45.3,44.3,48,41,48z M24,30c-7.3,0-12.6,1.7-15.9,4.9C5,38.1,5,41.8,5,42l0,0c0,1.1,0.9,2,2,2h34
		c1.1,0,2-0.9,2-2c0-0.2,0-3.9-3.1-7.1C36.6,31.7,31.3,30,24,30z"/>
</g>
<g>
	<path class="st0" d="M23.5,25C16.1,25,10,18.9,10,11.5S16.1-2,23.5-2C30.9-2,37,4.1,37,11.5S30.9,25,23.5,25z M23.5,2
		C18.3,2,14,6.3,14,11.5s4.3,9.5,9.5,9.5s9.5-4.3,9.5-9.5S28.7,2,23.5,2z"/>
</g>
<g>
	<g>
		<path class="st1" d="M53,33c-0.5,0-1-0.2-1.4-0.6L41.2,22l10.4-10.4c0.8-0.8,2-0.8,2.8,0c0.8,0.8,0.8,2,0,2.8L46.8,22l7.6,7.6
			c0.8,0.8,0.8,2,0,2.8C54,32.8,53.5,33,53,33z"/>
	</g>
</g>
</svg>
