<?xml version="1.0" encoding="utf-8"?>
<!-- Generator: Adobe Illustrator 19.2.1, SVG Export Plug-In . SVG Version: 6.00 Build 0)  -->
<svg version="1.1" id="publications" xmlns="http://www.w3.org/2000/svg" xmlns:xlink="http://www.w3.org/1999/xlink" x="0px"
	 y="0px" viewBox="0 0 47 52" style="enable-background:new 0 0 47 52;" xml:space="preserve">
<style type="text/css">
	.st0{fill:#C5C5C5;}
	.st1{fill:#008948;}
</style>
<g>
	<path class="st0" d="M43,54H4c-4.1,0-5.7-3.8-6-5.7l0-0.3V4c0-3.3,2.7-6,6-6h39c3.3,0,6,2.7,6,6v44C49,51.3,46.3,54,43,54z M2,47.8
		C2.1,48.4,2.5,50,4,50h39c1.1,0,2-0.9,2-2V4c0-1.1-0.9-2-2-2H4C2.9,2,2,2.9,2,4V47.8z"/>
</g>
<g>
	<path class="st0" d="M13,51c-0.6,0-1-0.4-1-1V2c0-0.6,0.4-1,1-1s1,0.4,1,1v48C14,50.6,13.6,51,13,51z"/>
</g>
<g>
	<path class="st1" d="M22,0v20l6-5l6,5V0H22z"/>
</g>
</svg>
