<?xml version="1.0" encoding="utf-8"?>
<!-- Generator: Adobe Illustrator 19.2.1, SVG Export Plug-In . SVG Version: 6.00 Build 0)  -->
<svg version="1.1" id="source" xmlns="http://www.w3.org/2000/svg" xmlns:xlink="http://www.w3.org/1999/xlink" x="0px" y="0px"
	 viewBox="0 0 47 54" style="enable-background:new 0 0 47 54;" xml:space="preserve">
<style type="text/css">
	.st0{fill:#C5C5C5;}
	.st1{fill:#008948;}
</style>
<g>
	<path class="st0" d="M43,56H4c-4.1,0-5.7-3.8-6-5.7l0-0.3V6c0-3.3,2.7-6,6-6h39c3.3,0,6,2.7,6,6v44C49,53.3,46.3,56,43,56z M2,49.8
		C2.1,50.4,2.5,52,4,52h39c1.1,0,2-0.9,2-2V6c0-1.1-0.9-2-2-2H4C2.9,4,2,4.9,2,6V49.8z"/>
</g>
<g>
	<path class="st0" d="M43,17H2c-0.6,0-1-0.4-1-1s0.4-1,1-1h41c0.6,0,1,0.4,1,1S43.6,17,43,17z"/>
</g>
<g id="Shape_11_copy">
	<path class="st0" d="M33,3H14c-0.6,0-1-0.4-1-1s0.4-1,1-1h19c0.6,0,1,0.4,1,1S33.6,3,33,3z"/>
</g>
<g id="Rectangle_6_copy_4">
	<rect x="18" y="21" class="st1" width="19" height="4"/>
</g>
<g id="Rectangle_6_copy_5">
	<rect x="18" y="29" class="st1" width="19" height="4"/>
</g>
<g id="Rectangle_6_copy_6">
	<rect x="18" y="37" class="st1" width="19" height="4"/>
</g>
<g id="Rectangle_6_copy_9">
	<rect x="11" y="21" class="st1" width="4" height="4"/>
</g>
<g id="Rectangle_6_copy_8">
	<rect x="11" y="29" class="st1" width="4" height="4"/>
</g>
<g id="Rectangle_6_copy_7">
	<rect x="11" y="37" class="st1" width="4" height="4"/>
</g>
</svg>
